<svg xmlns="http://www.w3.org/2000/svg" version="1.1" xmlns:xlink="http://www.w3.org/1999/xlink" xmlns:svgjs="http://svgjs.dev/svgjs" width="1440" height="250" preserveAspectRatio="none" viewBox="0 0 1440 250"><g mask="url(&quot;#SvgjsMask2290&quot;)" fill="none"><rect width="1440" height="250" x="0" y="0" fill="url(&quot;#SvgjsLinearGradient2291&quot;)"></rect><path d="M30 250L280 0L620.5 0L370.5 250z" fill="url(&quot;#SvgjsLinearGradient2292&quot;)"></path><path d="M244.60000000000002 250L494.6 0L692.6 0L442.6 250z" fill="url(&quot;#SvgjsLinearGradient2292&quot;)"></path><path d="M500.20000000000005 250L750.2 0L1071.2 0L821.2 250z" fill="url(&quot;#SvgjsLinearGradient2292&quot;)"></path><path d="M726.8000000000001 250L976.8000000000001 0L1143.3000000000002 0L893.3000000000001 250z" fill="url(&quot;#SvgjsLinearGradient2292&quot;)"></path><path d="M1400 250L1150 0L860.5 0L1110.5 250z" fill="url(&quot;#SvgjsLinearGradient2293&quot;)"></path><path d="M1200.4 250L950.4000000000001 0L765.9000000000001 0L1015.9000000000001 250z" fill="url(&quot;#SvgjsLinearGradient2293&quot;)"></path><path d="M937.8 250L687.8 0L570.8 0L820.8 250z" fill="url(&quot;#SvgjsLinearGradient2293&quot;)"></path><path d="M716.1999999999999 250L466.19999999999993 0L320.69999999999993 0L570.6999999999999 250z" fill="url(&quot;#SvgjsLinearGradient2293&quot;)"></path><path d="M1209.834582315317 250L1440 19.83458231531702L1440 250z" fill="url(&quot;#SvgjsLinearGradient2292&quot;)"></path><path d="M0 250L230.16541768468298 250L 0 19.83458231531702z" fill="url(&quot;#SvgjsLinearGradient2293&quot;)"></path></g><defs><mask id="SvgjsMask2290"><rect width="1440" height="250" fill="#ffffff"></rect></mask><linearGradient x1="50%" y1="100%" x2="50%" y2="0%" gradientUnits="userSpaceOnUse" id="SvgjsLinearGradient2291"><stop stop-color="rgba(14, 42, 71, 1)" offset="0"></stop><stop stop-color="rgba(1, 57, 128, 1)" offset="1"></stop></linearGradient><linearGradient x1="0%" y1="100%" x2="100%" y2="0%" id="SvgjsLinearGradient2292"><stop stop-color="rgba(15, 70, 185, 0.2)" offset="0"></stop><stop stop-opacity="0" stop-color="rgba(15, 70, 185, 0.2)" offset="0.66"></stop></linearGradient><linearGradient x1="100%" y1="100%" x2="0%" y2="0%" id="SvgjsLinearGradient2293"><stop stop-color="rgba(15, 70, 185, 0.2)" offset="0"></stop><stop stop-opacity="0" stop-color="rgba(15, 70, 185, 0.2)" offset="0.66"></stop></linearGradient></defs></svg>