<svg xmlns="http://www.w3.org/2000/svg" version="1.1" xmlns:xlink="http://www.w3.org/1999/xlink" xmlns:svgjs="http://svgjs.dev/svgjs" width="1440" height="560" preserveAspectRatio="none" viewBox="0 0 1440 560"><g mask="url(&quot;#SvgjsMask1001&quot;)" fill="none"><rect width="1440" height="560" x="0" y="0" fill="rgba(0, 97, 197, 1)"></rect><path d="M0,568.935C115.192,564.209,235.224,578.91,335.629,522.25C438.617,464.133,523.546,367.835,557.237,254.482C589.341,146.468,534.444,36.855,512.765,-73.724C492.328,-177.972,485.29,-282.932,433.675,-375.782C372.96,-485.002,312.449,-620.83,191.395,-651.831C70.108,-682.892,-41.643,-580.485,-154.573,-526.429C-249.655,-480.916,-335.994,-428.959,-416.463,-360.867C-510.703,-281.122,-636.5,-215.829,-663.887,-95.453C-691.488,25.867,-610.211,141.919,-556.37,254.086C-503.509,364.212,-460.122,490.375,-353.809,550.538C-248.905,609.903,-120.436,573.877,0,568.935" fill="#004e9e"></path><path d="M1440 972.008C1515.177 962.4300000000001 1573.48 905.145 1627.945 852.4490000000001 1674.324 807.577 1700.874 750.0550000000001 1729.291 692.115 1758.551 632.455 1789.911 574.86 1796.519 508.74 1804.54 428.486 1815.633 340.33000000000004 1771.174 273.036 1725.444 203.81799999999998 1641.5140000000001 166.942 1560.116 150.921 1482.483 135.64100000000002 1401.845 152.55399999999997 1330.258 186.253 1265.107 216.923 1218.762 273.356 1176.375 331.568 1136.988 385.659 1107.391 444.677 1094.305 510.297 1080.656 578.737 1078.87 648.783 1099.84 715.346 1122.679 787.84 1157.8600000000001 858.8299999999999 1218.533 904.61 1281.404 952.048 1361.872 981.962 1440 972.008" fill="#0074ec"></path></g><defs><mask id="SvgjsMask1001"><rect width="1440" height="560" fill="#ffffff"></rect></mask></defs></svg>