<svg xmlns="http://www.w3.org/2000/svg" version="1.1" xmlns:xlink="http://www.w3.org/1999/xlink" xmlns:svgjs="http://svgjs.dev/svgjs" width="1440" height="560" preserveAspectRatio="none" viewBox="0 0 1440 560"><g mask="url(&quot;#SvgjsMask1004&quot;)" fill="none"><rect width="1440" height="560" x="0" y="0" fill="rgba(133, 103, 0, 1)"></rect><path d="M 0,157 C 57.6,140.4 172.8,68.6 288,74 C 403.2,79.4 460.8,177.4 576,184 C 691.2,190.6 748.8,101.4 864,107 C 979.2,112.6 1036.8,232.6 1152,212 C 1267.2,191.4 1382.4,45.6 1440,4L1440 560L0 560z" fill="rgba(188, 145, 0, 1)"></path><path d="M 0,497 C 96,469.6 288,348.4 480,360 C 672,371.6 768,563.2 960,555 C 1152,546.8 1344,366.2 1440,319L1440 560L0 560z" fill="rgba(241, 187, 0, 1)"></path></g><defs><mask id="SvgjsMask1004"><rect width="1440" height="560" fill="#ffffff"></rect></mask></defs></svg>